<svg width="30" height="30" viewBox="0 0 30 30" fill="none" xmlns="http://www.w3.org/2000/svg">
<path d="M15.7004 14.1998C15.5004 15.5998 13.7004 20.9998 9.70041 20.6998C5.70041 20.3998 4.40041 13.5998 4.40041 13.5998C4.40041 13.5998 6.60041 10.8998 10.1004 11.0998C13.6004 11.2998 14.7004 13.1998 15.7004 14.1998ZM15.7004 14.1998C16.3004 14.1998 16.5004 9.5998 16.1004 8.5998C15.6004 7.1998 13.5004 4.7998 10.4004 4.7998C7.30041 4.7998 4.40041 7.1998 4.00041 8.4998C3.60041 9.7998 4.30041 13.4998 4.30041 13.4998" stroke="#333333" stroke-miterlimit="10" stroke-linecap="round" stroke-linejoin="round"/>
<path d="M7.00078 19.1992C7.00078 19.1992 7.40078 21.8992 6.50078 22.2992C5.60078 22.7992 3.80078 23.1992 3.80078 23.1992" stroke="#333333" stroke-miterlimit="10" stroke-linejoin="round"/>
<path d="M5.60156 10.0994C5.60156 10.0994 8.00156 8.79943 10.2016 8.99943C12.4016 9.19943 13.4016 9.69943 14.3016 10.4994" stroke="#333333" stroke-miterlimit="10" stroke-linecap="round" stroke-linejoin="round"/>
<path d="M10.9 3.59961H10V4.69961H10.9V3.59961Z" fill="#333333"/>
<path fill-rule="evenodd" clip-rule="evenodd" d="M26.5126 21.2457L26.5195 21.2521C26.7693 21.4869 26.9341 21.8009 26.9821 22.1449C27.0296 22.4865 26.9583 22.8322 26.7825 23.1262L25.4498 25.3913C25.2734 25.6934 24.9992 25.9223 24.6774 26.0449C24.3571 26.1669 24.005 26.1781 23.678 26.0771L22.7005 25.7833L22.5479 25.8692L22.3245 26.8221C22.3242 26.8231 22.324 26.824 22.3238 26.825C22.2451 27.1648 22.0517 27.4637 21.7808 27.6753C21.5099 27.8871 21.1766 28.0001 20.836 28C20.8357 28 20.8362 28 20.836 28H18.1618C17.8221 27.9992 17.4898 27.8861 17.2195 27.6749C16.9491 27.4635 16.7557 27.1653 16.6765 26.8262L17.6502 26.5985C17.6675 26.6727 17.7013 26.7418 17.7486 26.8012L17.7881 26.97H17.9879C18.044 26.9896 18.1036 26.9999 18.164 27H20.836C20.8969 27 20.9569 26.9898 21.0134 26.97C21.0679 26.951 21.1192 26.9232 21.1651 26.8874C21.2052 26.856 21.2402 26.8192 21.2691 26.7785C21.3073 26.7245 21.3349 26.6634 21.3498 26.5985L21.6745 25.2131L22.5809 24.7032L23.9703 25.1208C24.0339 25.1408 24.1002 25.1486 24.1659 25.1443C24.2188 25.1408 24.2713 25.1295 24.3214 25.1104C24.3642 25.0941 24.4042 25.0725 24.4408 25.0464C24.5001 25.0039 24.5501 24.9493 24.5869 24.8859L25.9229 22.6151C25.9584 22.5565 25.9814 22.4921 25.9911 22.4256C25.998 22.3786 25.9983 22.3306 25.9916 22.2829C25.9847 22.2334 25.9706 22.1856 25.9499 22.1407C25.9224 22.081 25.8834 22.0267 25.8345 21.9807L24.7678 21.015V19.9931L25.8325 19.0253C25.8819 18.9805 25.9217 18.9271 25.95 18.8682C25.9717 18.8234 25.9867 18.7754 25.9943 18.7257C26.0011 18.681 26.0018 18.6359 25.9966 18.5916C25.9884 18.522 25.9656 18.4543 25.9291 18.3929L24.5869 16.1222C24.5501 16.0587 24.5001 16.0041 24.4408 15.9616C24.4042 15.9355 24.3642 15.9139 24.3214 15.8976C24.2718 15.8787 24.22 15.8675 24.1677 15.8639C24.1014 15.8593 24.0344 15.8671 23.9703 15.8873L22.5892 16.2968L21.6828 15.7869L21.358 14.4015C21.3418 14.3296 21.3099 14.2625 21.2652 14.2044C21.2392 14.1705 21.2087 14.1397 21.1745 14.1128C21.1347 14.0817 21.0909 14.0565 21.0444 14.038C20.9819 14.0131 20.9147 14 20.8462 14H18.162C18.0933 13.9999 18.0258 14.013 17.963 14.038C17.9165 14.0565 17.8727 14.0816 17.8329 14.1126C17.8042 14.135 17.7782 14.1602 17.7552 14.1875C17.7031 14.2493 17.6663 14.3225 17.6482 14.4015L17.3234 15.7869L16.417 16.2968L15.0297 15.8953C14.9799 15.8797 14.9285 15.8716 14.877 15.8708C14.8099 15.8698 14.7427 15.8814 14.6793 15.9053C14.6452 15.9182 14.6128 15.9344 14.5825 15.9536C14.5131 15.9977 14.4549 16.0573 14.4131 16.1282L13.0709 18.4009C13.0296 18.4704 13.0059 18.5479 13.001 18.6271C12.9988 18.6625 13.0003 18.6982 13.0057 18.7337C13.0111 18.7687 13.0201 18.8028 13.0325 18.8356C13.0608 18.9105 13.1069 18.9784 13.1675 19.0334L14.2343 20.0011V21.023L13.1799 21.9827C13.1277 22.03 13.0863 22.0869 13.0577 22.1495C13.0385 22.1916 13.0251 22.2362 13.0181 22.2824C13.0121 22.3218 13.0108 22.3615 13.0142 22.4008C13.0206 22.4759 13.044 22.5491 13.0833 22.6151L14.4131 24.8859C14.4543 24.9564 14.5118 25.0159 14.5803 25.0601C14.6111 25.0799 14.6441 25.0966 14.6788 25.1099C14.7334 25.1307 14.7908 25.1423 14.8485 25.1446C14.9094 25.147 14.9707 25.1391 15.0297 25.1208L16.4191 24.7032L17.3255 25.2131L17.6502 26.5985L16.6763 26.8252M16.4522 25.8692L16.4233 25.7461L16.7069 25.6608L16.6219 25.3781L16.3519 25.4414L16.4233 25.7461L16.2995 25.7833M15.3209 26.0774C14.9942 26.1777 14.6426 26.1662 14.3228 26.0444C14.0011 25.9218 13.7268 25.6931 13.5502 25.3912L12.2217 23.1227C12.0458 22.8251 11.977 22.4753 12.0295 22.1314C12.0822 21.7867 12.2526 21.474 12.5072 21.2428C12.5075 21.2425 12.5078 21.2422 12.5082 21.2419L13.2343 20.581V20.4441L12.4958 19.7742C12.4958 19.7741 12.4959 19.7742 12.4958 19.7742C12.2408 19.5428 12.0699 19.2297 12.0172 18.8847C11.9646 18.54 12.0337 18.1895 12.2105 17.8914L13.5517 15.6203C13.7293 15.3194 14.0042 15.0913 14.3259 14.9698C14.6432 14.85 14.9914 14.8386 15.3155 14.937L16.2922 15.2197L16.4501 15.1308L16.6742 14.175C16.7528 13.8352 16.9463 13.5363 17.2171 13.3247C17.4881 13.1129 17.8214 12.9999 18.162 13M18.2997 24.7654L18.5813 25.97H20.4311L20.7127 24.7654C20.728 24.7011 20.7558 24.6403 20.7944 24.5862C20.7972 24.5822 20.8001 24.5783 20.803 24.5745C20.812 24.5626 20.8215 24.5511 20.8314 24.5401C20.8692 24.4981 20.9138 24.4623 20.9634 24.4341L22.2685 23.6993C22.3189 23.6709 22.3737 23.651 22.4306 23.6403C22.4434 23.6379 22.4562 23.636 22.4692 23.6346C22.477 23.6337 22.4848 23.633 22.4927 23.6324C22.5557 23.6282 22.619 23.6352 22.6796 23.6531L23.8881 24.0165L24.811 22.4565L23.8861 21.6153C23.8325 21.5674 23.7898 21.5091 23.7607 21.4441C23.7317 21.379 23.717 21.3088 23.7175 21.2378V19.7682C23.7178 19.6974 23.7329 19.6274 23.7619 19.5625C23.7909 19.4976 23.8332 19.4391 23.8861 19.3907L24.811 18.5515L23.8881 16.9915L22.6816 17.3529C22.6161 17.3722 22.5473 17.3789 22.4791 17.3725C22.4766 17.3723 22.474 17.372 22.4715 17.3717C22.4667 17.3712 22.462 17.3707 22.4572 17.37C22.3917 17.3612 22.3284 17.3404 22.2706 17.3087L20.9655 16.5739C20.9079 16.5408 20.8573 16.4977 20.8159 16.4466C20.8132 16.4432 20.8106 16.4398 20.8079 16.4364C20.8071 16.4354 20.8063 16.4343 20.8055 16.4332C20.7624 16.3763 20.7315 16.3115 20.7147 16.2426L20.4331 15.038H18.5833L18.3017 16.2426C18.2853 16.3116 18.2545 16.3766 18.2114 16.4336C18.1683 16.4905 18.1137 16.5383 18.051 16.5739L16.7479 17.3087C16.686 17.3427 16.6177 17.3643 16.5472 17.3723C16.5462 17.3724 16.5453 17.3725 16.5444 17.3726C16.5426 17.3728 16.5407 17.3729 16.5388 17.3731C16.4709 17.3797 16.4024 17.3735 16.3369 17.3549L15.1304 16.9915L14.2075 18.5515L15.1324 19.3907C15.1858 19.4388 15.2283 19.4972 15.2573 19.5622C15.2863 19.6271 15.3012 19.6973 15.301 19.7682V21.2398C15.3007 21.3107 15.2856 21.3807 15.2566 21.4456C15.2276 21.5105 15.1854 21.5689 15.1324 21.6173L14.2075 22.4565L15.1263 24.0165L16.3328 23.6531C16.3894 23.6367 16.4485 23.6298 16.5073 23.6324C16.5193 23.633 16.5312 23.6339 16.5431 23.6353C16.5507 23.6361 16.5583 23.6371 16.5658 23.6383C16.6283 23.648 16.6886 23.6687 16.7438 23.6993L18.0489 24.4341C18.1039 24.4653 18.1525 24.5058 18.1927 24.5537C18.1952 24.5566 18.1977 24.5596 18.2001 24.5626C18.2032 24.5665 18.2063 24.5705 18.2093 24.5745C18.2525 24.6314 18.2832 24.6964 18.2997 24.7654ZM15.5896 22.8326L16.0548 22.6925C16.2496 22.6361 16.4535 22.6189 16.6547 22.6415C16.8559 22.6641 17.0514 22.7262 17.2293 22.8251L17.2344 22.8279L18.5429 23.5647C18.7226 23.6668 18.8808 23.8046 19.0067 23.9709C19.1327 24.1374 19.2234 24.3286 19.2723 24.5329L19.2735 24.5378L19.3745 24.97H19.6379L19.74 24.5329C19.7889 24.3286 19.8797 24.1374 20.0057 23.9709C20.1316 23.8046 20.2897 23.6668 20.4694 23.5647L20.4728 23.5627L21.7772 22.8283C21.9566 22.7271 22.1541 22.6637 22.3575 22.6408C22.561 22.6179 22.7673 22.6361 22.9639 22.6944L22.9675 22.6955L23.4262 22.8334L23.5356 22.6483L23.2157 22.3573C23.0598 22.217 22.9339 22.0451 22.8476 21.8518C22.7611 21.658 22.7165 21.4478 22.7175 21.2348M15.5896 22.8326L15.4822 22.6503L15.8044 22.3579L15.8073 22.3553C15.9605 22.2151 16.0843 22.0445 16.1697 21.8533C16.2551 21.662 16.3001 21.4546 16.301 21.2441L16.301 19.7693M15.8022 18.6482L15.4834 18.3589L15.5922 18.175L16.056 18.3147L16.0636 18.3168C16.257 18.3718 16.4593 18.3884 16.6588 18.366C16.8584 18.3436 17.0523 18.2824 17.2292 18.1853L18.5422 17.445L18.545 17.4434C18.7247 17.3413 18.8828 17.2034 19.0087 17.0371C19.1347 16.8706 19.2255 16.6795 19.2744 16.4751L19.3765 16.038H19.6399L19.7409 16.4702L19.7433 16.48C19.7928 16.6825 19.8833 16.8718 20.0082 17.0368C20.133 17.2017 20.2895 17.3388 20.4672 17.4409L21.78 18.1801L21.7896 18.1854C21.9679 18.2833 22.1635 18.3444 22.3647 18.366C22.5659 18.3876 22.7696 18.3694 22.964 18.3122L23.4257 18.1739L23.5351 18.3589L23.2141 18.6502L23.2113 18.6527C23.0581 18.7928 22.9343 18.9634 22.8488 19.1548C22.7633 19.3462 22.7184 19.5535 22.7175 19.7639L22.7175 21.2348M18.162 13H20.8462C20.8462 13 20.8462 13 20.8462 13C21.1872 13 21.5208 13.1135 21.7917 13.3261C22.0619 13.538 22.2544 13.8369 22.3323 14.1763L22.5561 15.1308L22.7106 15.2178L23.6802 14.9303C24.0066 14.83 24.3578 14.8414 24.6774 14.9631C24.9989 15.0856 25.2729 15.3142 25.4493 15.6159L26.7885 17.8817C26.7889 17.8823 26.7893 17.883 26.7897 17.8836C26.9663 18.1816 27.0354 18.5321 26.9828 18.8766C26.9301 19.2214 26.7597 19.534 26.5051 19.7653M26.5042 19.7661L25.7678 20.4355V20.5714L26.5126 21.2457" fill="white"/>
<path d="M25.8345 21.9807L24.7678 21.015V19.9931L25.8325 19.0253C25.9196 18.9463 25.9767 18.8406 25.9943 18.7257C26.0118 18.6107 25.9888 18.4934 25.9291 18.3929L24.5869 16.1222C24.5275 16.0197 24.4337 15.9404 24.3214 15.8976C24.2091 15.8548 24.0851 15.8512 23.9703 15.8873L22.5892 16.2968L21.6828 15.7869L21.358 14.4015C21.3323 14.2877 21.2675 14.1858 21.1745 14.1128C21.0814 14.0398 20.9656 14 20.8462 14H18.162C18.0424 13.9999 17.9263 14.0396 17.8329 14.1126C17.7395 14.1856 17.6743 14.2875 17.6481 14.4015L17.3234 15.7869L16.417 16.2968L15.0297 15.8953C14.9151 15.8594 14.7915 15.863 14.6793 15.9053C14.5671 15.9477 14.4731 16.0264 14.4131 16.1282L13.0709 18.4009C13.0112 18.5014 12.9882 18.6188 13.0057 18.7337C13.0233 18.8486 13.0804 18.9543 13.1675 19.0334L14.2343 20.0011V21.023L13.1799 21.9827C13.0927 22.0618 13.0356 22.1674 13.0181 22.2824C13.0005 22.3973 13.0235 22.5147 13.0833 22.6151L14.4131 24.8859C14.4728 24.9881 14.5666 25.0671 14.6788 25.1099C14.7911 25.1526 14.9149 25.1565 15.0297 25.1208L16.4191 24.7032L17.3255 25.2131L17.6502 26.5985C17.6767 26.7123 17.742 26.814 17.8353 26.8869C17.9286 26.9599 18.0445 26.9997 18.164 27H20.836C20.9556 27.0001 21.0717 26.9604 21.1651 26.8874C21.2585 26.8144 21.3236 26.7125 21.3498 26.5985L21.6745 25.2131L22.5809 24.7032L23.9703 25.1208C24.0851 25.1569 24.2091 25.1532 24.3214 25.1104C24.4337 25.0676 24.5275 24.9883 24.5869 24.8859L25.9229 22.6151C25.9834 22.5151 26.0077 22.398 25.9916 22.2829C25.9756 22.1678 25.9202 22.0613 25.8345 21.9807ZM23.8881 24.0165L22.6796 23.6531C22.6115 23.6329 22.5399 23.6266 22.4692 23.6346C22.3984 23.6425 22.3302 23.6645 22.2685 23.6993L20.9634 24.4341C20.9007 24.4698 20.8461 24.5175 20.803 24.5745C20.7599 24.6314 20.7291 24.6964 20.7126 24.7654L20.4311 25.97H18.5813L18.2997 24.7654C18.2832 24.6964 18.2525 24.6314 18.2093 24.5745C18.1662 24.5175 18.1116 24.4698 18.0489 24.4341L16.7438 23.6993C16.682 23.665 16.6137 23.6432 16.5431 23.6353C16.4725 23.6273 16.4009 23.6334 16.3327 23.6531L15.1263 24.0165L14.2075 22.4565L15.1324 21.6173C15.1854 21.5689 15.2276 21.5105 15.2566 21.4456C15.2856 21.3807 15.3007 21.3107 15.301 21.2398V19.7682C15.3012 19.6973 15.2863 19.6271 15.2573 19.5622C15.2283 19.4972 15.1857 19.4388 15.1324 19.3907L14.2075 18.5515L15.1304 16.9915L16.3369 17.3549C16.4051 17.3743 16.4766 17.3802 16.5472 17.3723C16.6177 17.3643 16.686 17.3427 16.7479 17.3087L18.051 16.5739C18.1137 16.5383 18.1683 16.4905 18.2114 16.4336C18.2545 16.3766 18.2853 16.3116 18.3017 16.2426L18.5833 15.038H20.4331L20.7147 16.2426C20.7315 16.3115 20.7624 16.3763 20.8055 16.4332C20.8486 16.4902 20.903 16.538 20.9654 16.5739L22.2706 17.3087C22.3325 17.3427 22.4009 17.3642 22.4715 17.3717C22.5421 17.3793 22.6136 17.3729 22.6816 17.3529L23.8881 16.9915L24.811 18.5515L23.8861 19.3907C23.8331 19.4391 23.7909 19.4976 23.7619 19.5625C23.7329 19.6274 23.7178 19.6974 23.7175 19.7682V21.2378C23.717 21.3088 23.7317 21.379 23.7607 21.4441C23.7897 21.5091 23.8325 21.5674 23.8861 21.6153L24.811 22.4565L23.8881 24.0165Z" fill="#333333"/>
<path d="M17.5 20.2353L18.9815 22L21.5 19" stroke="#333333" stroke-linecap="round" stroke-linejoin="round"/>
</svg>
